<?xml version="1.0" encoding="utf-8"?>
<!-- Generator: Adobe Illustrator 21.1.0, SVG Export Plug-In . SVG Version: 6.00 Build 0)  -->
<svg version="1.1" id="Layer_1" xmlns="http://www.w3.org/2000/svg" xmlns:xlink="http://www.w3.org/1999/xlink" x="0px" y="0px"
	 viewBox="0 0 100 125" style="enable-background:new 0 0 100 125;" xml:space="preserve">
<g>
	<path d="M54.5,5.7c-1-0.5-2.2-0.4-3.1,0.2L35.1,21.1h-16c-1.7,0-3,1.3-3,3v16.4c0,1.7,1.3,3,3,3h16l16.3,14.6
		c0.5,0.3,1.1,0.5,1.6,0.5s1-0.1,1.4-0.4c1-0.5,1.6-1.5,1.6-2.6V8.4C56.1,7.2,55.5,6.2,54.5,5.7z"/>
	<path d="M74.7,32l4.3-4.3c1.2-1.2,1.2-3.1,0-4.2c-1.2-1.2-3.1-1.2-4.2,0l-4.3,4.3l-4.3-4.3c-1.2-1.2-3.1-1.2-4.2,0
		c-1.2,1.2-1.2,3.1,0,4.2l4.3,4.3L62,36.3c-1.2,1.2-1.2,3.1,0,4.2c0.6,0.6,1.4,0.9,2.1,0.9c0.8,0,1.5-0.3,2.1-0.9l4.3-4.3l4.3,4.3
		c0.6,0.6,1.4,0.9,2.1,0.9c0.8,0,1.5-0.3,2.1-0.9c1.2-1.2,1.2-3.1,0-4.2L74.7,32z"/>
</g>
<g>
	<path d="M54.5,67.2c-1-0.5-2.2-0.4-3.1,0.2L35.1,82.6h-16c-1.7,0-3,1.3-3,3V102c0,1.7,1.3,3,3,3h16l16.3,14.6
		c0.5,0.3,1.1,0.5,1.6,0.5s1-0.1,1.4-0.4c1-0.5,1.6-1.5,1.6-2.6V69.9C56.1,68.8,55.5,67.7,54.5,67.2z"/>
</g>
<path d="M67,79.9c-1.2-1.2-3.1-1.2-4.2,0c-1.2,1.2-1.2,3.1,0,4.2c5.1,5.1,5.1,13.5,0,18.6c-1.2,1.2-1.2,3.1,0,4.2
	c0.6,0.6,1.4,0.9,2.1,0.9c0.8,0,1.5-0.3,2.1-0.9C74.5,99.6,74.5,87.4,67,79.9z"/>
<path d="M76.6,69.6c-1.2-1.2-3.1-1.2-4.2,0c-1.2,1.2-1.2,3.1,0,4.2c10.8,10.8,10.8,28.4,0,39.2c-1.2,1.2-1.2,3.1,0,4.2
	c0.6,0.6,1.4,0.9,2.1,0.9s1.5-0.3,2.1-0.9c6.4-6.4,9.9-14.8,9.9-23.9C86.5,84.5,83,76,76.6,69.6z"/>
</svg>
